<svg id="Layer_1" data-name="Layer 1" xmlns="http://www.w3.org/2000/svg" viewBox="0 0 580.27 94.96"><defs><style>.cls-1{fill:#fffcf1;}</style></defs><path class="cls-1" d="M652.78,345.06a26.15,26.15,0,0,1-12.56-2.83,18.67,18.67,0,0,1-7.86-7.78,23.83,23.83,0,0,1-2.62-11.31q0-7.77,3.5-12.63a26.56,26.56,0,0,1,9-7.87,69.1,69.1,0,0,1,11.69-5q6.2-2,11.69-3.89a36.6,36.6,0,0,0,9.08-4.33,7.62,7.62,0,0,0,3.58-6.54v-12a22,22,0,0,0-2-10.16,11.75,11.75,0,0,0-5.41-5.39,19.06,19.06,0,0,0-8.12-1.59,35.13,35.13,0,0,0-8.55,1.15,12.75,12.75,0,0,0-7.16,4.51,12.26,12.26,0,0,1,6.38,4.15,11.79,11.79,0,0,1,2.53,7.69A9.79,9.79,0,0,1,652.7,279a11.87,11.87,0,0,1-8.12,2.83c-3.61,0-6.28-1.15-8-3.44a13,13,0,0,1-2.62-8.05,12.22,12.22,0,0,1,2.36-7.77,28.14,28.14,0,0,1,6.2-5.66,39.35,39.35,0,0,1,10.73-4.77,51.28,51.28,0,0,1,14.57-1.94,44.77,44.77,0,0,1,13,1.68,21.35,21.35,0,0,1,9.16,5.39,19.44,19.44,0,0,1,5.76,10.16,67,67,0,0,1,1.4,14.75v48.78c0,2.95.37,5,1.13,6.27a4.06,4.06,0,0,0,3.75,1.86,7.16,7.16,0,0,0,3.41-.88,29.46,29.46,0,0,0,3.92-2.65l1.75,3a36,36,0,0,1-7.42,4.77,22.3,22.3,0,0,1-9.51,1.77,20.1,20.1,0,0,1-9.08-1.77,11.21,11.21,0,0,1-5.15-5.12,18.76,18.76,0,0,1-1.65-8.31,33.56,33.56,0,0,1-10.82,11.31A27.33,27.33,0,0,1,652.78,345.06Zm8.38-8.49a16.33,16.33,0,0,0,9.16-2.82,28.5,28.5,0,0,0,7.95-8.49V290.1a16.12,16.12,0,0,1-5.59,4.86c-2.44,1.35-5.06,2.74-7.85,4.15a57.15,57.15,0,0,0-7.94,4.86,22.22,22.22,0,0,0-6.2,7,21.37,21.37,0,0,0-2.44,10.78q0,6.9,3.49,10.87A11.88,11.88,0,0,0,661.16,336.57Z" transform="translate(-130.81 -250.16)"/><path class="cls-1" d="M595.21,250.17a43.1,43.1,0,0,1,11.34,1.48,33.17,33.17,0,0,1,9.43,4.11,18.86,18.86,0,0,1,6.37,6.28,15.44,15.44,0,0,1,2.18,8q0,5.24-3,8.2a10.39,10.39,0,0,1-7.68,3,11.81,11.81,0,0,1-7.85-2.62,9.21,9.21,0,0,1-3.14-7.5,10.62,10.62,0,0,1,2.61-7.42,12.12,12.12,0,0,1,6.11-3.75,12.13,12.13,0,0,0-5.49-4.46,19.81,19.81,0,0,0-8.47-1.83,17.86,17.86,0,0,0-9,2.45,22.74,22.74,0,0,0-7.59,7.5,42.77,42.77,0,0,0-5.32,13.09,80.77,80.77,0,0,0-2,19.37q0,14.67,3.4,23.3t9,12.31a21.55,21.55,0,0,0,12,3.66,25.66,25.66,0,0,0,17.2-6.8,33.08,33.08,0,0,0,7.24-10l3.31,1.22a46.34,46.34,0,0,1-6,11.69,32.73,32.73,0,0,1-10.73,9.78q-6.63,3.84-16.23,3.84a36.85,36.85,0,0,1-34-21.21q-5.24-10.38-5.23-25.39,0-14.67,5.32-25.57a40.16,40.16,0,0,1,14.75-16.84A39.41,39.41,0,0,1,595.21,250.17Z" transform="translate(-130.81 -250.16)"/><path class="cls-1" d="M545.42,324.46a10.64,10.64,0,0,1,7.6,2.93,9.86,9.86,0,0,1,3.08,7.44,9.69,9.69,0,0,1-3.08,7.3,11.31,11.31,0,0,1-15.19,0,9.66,9.66,0,0,1-3.09-7.3,9.83,9.83,0,0,1,3.09-7.44A10.59,10.59,0,0,1,545.42,324.46Z" transform="translate(-130.81 -250.16)"/><path class="cls-1" d="M519.79,257.56a5,5,0,0,1,3-3.2,20.53,20.53,0,0,1,6.47-1V250.7q-3.07.13-8.2.26c-3.43.09-7.09.14-11,.14q-5.34,0-10.67-.14t-8.94-.26v2.66a21,21,0,0,1,6.6,1,4.83,4.83,0,0,1,2.94,3.2,26.68,26.68,0,0,1,.73,7.27v30.69h-38V264.83a24.32,24.32,0,0,1,.8-7.27,5,5,0,0,1,3-3.2,20.53,20.53,0,0,1,6.47-1V250.7c-2.22.09-5.07.18-8.53.26s-7,.14-10.54.14q-6,0-11.27-.14t-8.47-.26v2.66a21,21,0,0,1,6.6,1,4.83,4.83,0,0,1,2.94,3.2,26.68,26.68,0,0,1,.73,7.27V331a26.75,26.75,0,0,1-.73,7.2,4.62,4.62,0,0,1-2.94,3.2,24.66,24.66,0,0,1-6.6,1.07v2.67q3.21-.27,8.47-.34t11.27-.06c3.55,0,7.07,0,10.54.06s6.31.16,8.53.34v-2.67a25.11,25.11,0,0,1-6.53-1.07,4.58,4.58,0,0,1-3-3.2,26.27,26.27,0,0,1-.74-7.2V299.76h38V331a26.75,26.75,0,0,1-.73,7.2,4.62,4.62,0,0,1-2.94,3.2,24.66,24.66,0,0,1-6.6,1.07v2.67q3.6-.27,8.94-.34t10.67-.06c3.91,0,7.57,0,11,.06s6.15.16,8.2.34v-2.67a25.11,25.11,0,0,1-6.53-1.07,4.61,4.61,0,0,1-3-3.2A26.34,26.34,0,0,1,519,331V264.83A24.32,24.32,0,0,1,519.79,257.56Z" transform="translate(-130.81 -250.16)"/><path class="cls-1" d="M406,250.17a43.12,43.12,0,0,1,11.35,1.48,33.1,33.1,0,0,1,9.42,4.11,18.69,18.69,0,0,1,6.37,6.28,15.36,15.36,0,0,1,2.19,8q0,5.24-3,8.2a10.39,10.39,0,0,1-7.68,3,11.86,11.86,0,0,1-7.86-2.62,9.24,9.24,0,0,1-3.14-7.5,10.63,10.63,0,0,1,2.62-7.42,12.12,12.12,0,0,1,6.11-3.75,12.16,12.16,0,0,0-5.5-4.46,19.79,19.79,0,0,0-8.46-1.83,17.83,17.83,0,0,0-9,2.45,22.65,22.65,0,0,0-7.59,7.5,42.77,42.77,0,0,0-5.33,13.09,80.82,80.82,0,0,0-2,19.37q0,14.67,3.4,23.3t9,12.31a21.53,21.53,0,0,0,12,3.66,25.84,25.84,0,0,0,8.64-1.57,25.59,25.59,0,0,0,8.55-5.23,33.1,33.1,0,0,0,7.25-10l3.31,1.22a46.67,46.67,0,0,1-6,11.69A32.83,32.83,0,0,1,420,341.28q-6.65,3.84-16.24,3.84a36.85,36.85,0,0,1-34-21.21q-5.24-10.38-5.24-25.39,0-14.67,5.33-25.57a40.09,40.09,0,0,1,14.75-16.84A39.37,39.37,0,0,1,406,250.17Z" transform="translate(-130.81 -250.16)"/><path class="cls-1" d="M357.71,250.69v73.14q0,7.85,2.7,11.6c1.81,2.51,5.09,3.75,9.87,3.75v3.67q-5.41-.53-10.83-.52-5.76,0-11,.52a46.88,46.88,0,0,0-9.6,1.92v-19q-4.37,10.47-12.13,14.92a32.43,32.43,0,0,1-16.32,4.45,29.44,29.44,0,0,1-11-1.83,22.36,22.36,0,0,1-7.5-4.8,19.4,19.4,0,0,1-4.36-9,65.17,65.17,0,0,1-1.23-13.88v-44c0-5.24-.87-9.1-2.61-11.61s-5.07-3.75-9.95-3.75v-3.67q5.58.52,10.82.53a94.22,94.22,0,0,0,11-.61,62.23,62.23,0,0,0,9.6-1.84v69.82a57.07,57.07,0,0,0,.7,9.25,11.25,11.25,0,0,0,3.32,6.63c1.74,1.63,4.54,2.45,8.38,2.45a17.51,17.51,0,0,0,10.9-3.67,25,25,0,0,0,7.6-9.95,34.48,34.48,0,0,0,2.79-14.14V271.64c0-5.24-.87-9.1-2.62-11.61s-5.06-3.75-9.95-3.75v-3.67q5.58.52,10.82.53a94.39,94.39,0,0,0,11-.61A62.23,62.23,0,0,0,357.71,250.69Z" transform="translate(-130.81 -250.16)"/><path class="cls-1" d="M237.8,250.17a43.14,43.14,0,0,1,20.77,4.89q9.06,4.89,14.48,15.36t5.41,27.4q0,16.94-5.41,27.31t-14.48,15.19a43.8,43.8,0,0,1-20.77,4.8,44.4,44.4,0,0,1-20.77-4.8,33.84,33.84,0,0,1-14.58-15.19q-5.32-10.38-5.32-27.31t5.32-27.4A34.32,34.32,0,0,1,217,255.06,43.73,43.73,0,0,1,237.8,250.17Zm0,3.49q-9.09,0-14.84,10.39t-5.76,33.77q0,23.39,5.76,33.6t14.84,10.21q8.89,0,14.74-10.21t5.85-33.6q0-23.38-5.85-33.77T237.8,253.66Z" transform="translate(-130.81 -250.16)"/><path class="cls-1" d="M158.74,250.17a31.06,31.06,0,0,1,12.13,2.18,36.08,36.08,0,0,1,7.41,3.93q5.76,4.55,7.16-5.93h3.84q-.34,4.88-.52,11.78c-.12,4.59-.18,17.95-.18,25.51h-3.84c-.7-4.31-1.89-15.77-3.58-19.84a25.74,25.74,0,0,0-7.33-10.12q-4.8-4-12.48-4a14.37,14.37,0,0,0-9.59,3.23c-2.57,2.16-3.84,5.32-3.84,9.51a13.87,13.87,0,0,0,3.14,9.08,36.31,36.31,0,0,0,8.11,7.15l10.74,7.16q6.45,4.36,11.6,8.64a36,36,0,0,1,8.21,9.51,23.89,23.89,0,0,1,3.05,12.22,21.73,21.73,0,0,1-4.28,13.61,26.61,26.61,0,0,1-11.25,8.47,39.94,39.94,0,0,1-15.36,2.88,37.13,37.13,0,0,1-7.86-.79,44.46,44.46,0,0,1-6.8-2q-1.92-1.05-3.75-2.19L139.89,338a2.13,2.13,0,0,0-3.14.35q-1.41,1.57-2.1,5.59h-3.84c.23-3.73.41-8.26.53-13.62s.17-19.72.17-28.56h3.84c.81,6.4,2,19.31,3.66,24.2a25,25,0,0,0,7.25,11.43q4.8,4.11,13.17,4.1a16.14,16.14,0,0,0,6.64-1.48,12.75,12.75,0,0,0,5.49-4.8q2.19-3.32,2.19-8.9a16.55,16.55,0,0,0-5.33-12.65,107.77,107.77,0,0,0-13.7-10.57q-5.92-4.19-11.25-8.29a36.38,36.38,0,0,1-8.64-9.25,22.14,22.14,0,0,1-3.32-12.3q0-7.86,3.75-12.92a22.81,22.81,0,0,1,10-7.59A35.74,35.74,0,0,1,158.74,250.17Z" transform="translate(-130.81 -250.16)"/></svg>