<svg id="Layer_1" data-name="Layer 1" xmlns="http://www.w3.org/2000/svg" viewBox="0 0 162.34 183.12"><defs><style>.cls-1{fill:#4f613f;}.cls-2{fill:#fffcf1;}.cls-3{fill:#802e2f;}</style></defs><polygon class="cls-1" points="162.34 143.12 81.17 183.12 0 143.12 0 10 81.17 0 162.34 10 162.34 143.12"/><path class="cls-2" d="M417.08,229.64a39.1,39.1,0,0,1,15.34,2.76,45.45,45.45,0,0,1,9.37,5q7.27,5.74,9-7.5h4.86q-.45,6.18-.66,14.89c-.15,5.81-.22,22.68-.22,32.24H450c-.88-5.44-2.39-19.92-4.52-25.07a32.73,32.73,0,0,0-9.26-12.8q-6.07-5.07-15.78-5.07a18.2,18.2,0,0,0-12.13,4.08q-4.86,4.08-4.85,12a17.53,17.53,0,0,0,4,11.47,45.93,45.93,0,0,0,10.26,9.05l13.56,9q8.16,5.52,14.67,10.92a45.6,45.6,0,0,1,10.37,12,30.12,30.12,0,0,1,3.86,15.44q0,10.16-5.41,17.21A33.65,33.65,0,0,1,440.47,346a50.61,50.61,0,0,1-19.42,3.64,47.46,47.46,0,0,1-9.92-1,56.75,56.75,0,0,1-8.6-2.54q-2.43-1.32-4.75-2.76l-4.52-2.76a2.69,2.69,0,0,0-4,.45q-1.77,2-2.65,7h-4.85q.43-7.05.66-17.2c.15-6.76.22-24.93.22-36.1h4.86c1,8.08,2.57,24.41,4.63,30.58s5.11,11,9.15,14.45S410.91,345,418,345a20.41,20.41,0,0,0,8.38-1.88,16.16,16.16,0,0,0,6.95-6.07q2.74-4.19,2.75-11.25a21,21,0,0,0-6.72-16A137.11,137.11,0,0,0,412,296.48q-7.5-5.3-14.23-10.48a46.8,46.8,0,0,1-10.92-11.69,28.13,28.13,0,0,1-4.19-15.55q0-9.93,4.75-16.33a28.79,28.79,0,0,1,12.68-9.59A45,45,0,0,1,417.08,229.64Z" transform="translate(-339.78 -206.08)"/><polygon class="cls-3" points="78.55 91.56 78.77 89.71 72.82 84.78 74.29 84.17 73.24 79.96 77.45 81.01 77.57 78.68 80.79 80.57 80.09 75.96 81.71 76.61 84.27 72.43 86.82 76.61 88.44 75.96 87.75 80.57 90.97 78.68 91.08 81.01 95.29 79.96 94.24 84.17 95.71 84.78 89.76 89.71 89.99 91.56 84.27 91.13 78.55 91.56"/></svg>